<svg xmlns="http://www.w3.org/2000/svg" viewBox="0 0 578.89 377.05"><defs><style>.a{fill:#bddbff;}.b{fill:#57a4ff;}.c{fill:#ff7956;}.d{fill:#ff3f62;}.e{fill:#ffe477;}.f{fill:#ffb655;}.g{fill:#fff;}</style></defs><title>Asset 1</title><path class="a" d="M318.48,57.57l1.26,1.25a54.27,54.27,0,0,0,62.57,10.36,133.21,133.21,0,1,1,0,239,54.27,54.27,0,0,0-62.57,10.36l-1.26,1.25C245.28,392.19,125.84,390.2,55,315.5A184.38,184.38,0,0,1,55,61.9c70.84-74.72,190.28-76.72,263.49-4.33Z"/><path class="b" d="M259,72.81a131.1,131.1,0,0,1,28.81,41.08,38.68,38.68,0,0,0,35.33,23,39.08,39.08,0,0,0,31.62-16.45,80.4,80.4,0,1,1-2.27,90.76A35.72,35.72,0,0,0,289.61,217a131.05,131.05,0,0,1-31.46,46.08c-50.29,47.65-129.83,47.89-180.38.52C23,212.31,22.3,125.82,75.54,73.58c50.63-49.69,132.45-50,183.5-.77Z"/><path class="c" d="M280.21,94A131.21,131.21,0,0,1,309,135.06a38.61,38.61,0,0,0,67,6.59,80.4,80.4,0,1,1-2.27,90.76,35.72,35.72,0,0,0-62.92,5.77,131,131,0,0,1-31.46,46.07c-50.29,47.66-129.82,47.89-180.38.52C44.21,233.48,43.47,147,96.71,94.75c50.63-49.69,132.45-50,183.5-.77Z"/><path class="d" d="M152,172.09a42.94,42.94,0,1,0,60.72,0,42.94,42.94,0,0,0-60.72,0Z"/><path class="e" d="M173.15,193.26a42.94,42.94,0,1,0,60.72,0,42.94,42.94,0,0,0-60.72,0Z"/><path class="b" d="M297.31,298.64l1.26-1.26A54.27,54.27,0,0,1,361.13,287,133.22,133.22,0,0,0,524.19,84.52,133.21,133.21,0,0,1,382.31,308.2a54.27,54.27,0,0,0-62.57,10.36l-1.26,1.25C245.28,392.19,125.84,390.2,55,315.5q-3.49-3.69-6.74-7.51c71.77,61,180.62,58.32,249.05-9.35Z"/><path class="d" d="M474.28,226.84a80.52,80.52,0,0,0,12.18-104.6A80.41,80.41,0,1,1,374.75,234a80.66,80.66,0,0,0,99.53-7.14Z"/><path class="d" d="M258.15,263.08A131,131,0,0,0,289.61,217a35.72,35.72,0,0,1,62.92-5.76,80.56,80.56,0,0,0,6,8.13,35.74,35.74,0,0,0-47.78,18.81,131,131,0,0,1-31.46,46.07c-50.29,47.66-129.82,47.89-180.38.52a133.63,133.63,0,0,1-13.12-14.22c50.64,40.27,124.63,37.73,172.33-7.47Z"/><path class="f" d="M212.7,232.81a43,43,0,0,0,8.69-48.24,42.94,42.94,0,1,1-56.93,56.93,43,43,0,0,0,48.24-8.69Z"/><path d="M203.51,271A47.4,47.4,0,1,1,237,257.15,47.11,47.11,0,0,1,203.51,271Zm0-85.83a38.38,38.38,0,1,0,27.19,11.24A38.18,38.18,0,0,0,203.51,185.19Z"/><path d="M188.83,324.63a135.93,135.93,0,0,1-.55-271.86h.6a135.76,135.76,0,0,1,124.24,80.47,34.24,34.24,0,0,0,31.23,20.38,34.75,34.75,0,0,0,28-14.59,85.76,85.76,0,0,1,10.41-11.91,84.11,84.11,0,0,1,42.14-21.65l1.4,8.87a75.06,75.06,0,0,0-37.36,19.29,75.91,75.91,0,0,0-9.32,10.65,43.73,43.73,0,0,1-35.25,18.31,43.26,43.26,0,0,1-39.43-25.7,127.05,127.05,0,0,0-243.1,53.28c.91,78.69,65.85,125.72,128.11,125.72,32.37,0,62.21-12.07,86.3-34.89a125.92,125.92,0,0,0,30.38-44.5A40.22,40.22,0,0,1,377.47,230,75.91,75.91,0,1,0,492.34,132.6a74.79,74.79,0,0,0-41.27-19.09l.81-8.94A83.73,83.73,0,0,1,498.39,126,84.82,84.82,0,0,1,442.2,273.5h-1.06a84.61,84.61,0,0,1-71.2-38.66,31.24,31.24,0,0,0-55,5,135.72,135.72,0,0,1-125.69,84.77Z"/><path d="M198.55,368.09a179,179,0,0,0,116.78-51.48l1.21-1.2a58.25,58.25,0,0,1,41.64-17.33,59.29,59.29,0,0,1,26.11,6.1,129.3,129.3,0,0,0,56.83,13.25,128.74,128.74,0,1,0,0-257.48A129.3,129.3,0,0,0,384.29,73.2a59.26,59.26,0,0,1-26,6.15c-15.81,0-30.66-6.43-42.95-18.59A178.43,178.43,0,0,0,189,9l-3,0A178.57,178.57,0,0,0,58.24,65C10,115.86-4.16,188.12,21.27,253.55c25.13,64.64,83.12,108.13,151.81,114.1l-.63,9c-36.54-3.14-70.6-16.22-98.66-37.93A192.44,192.44,0,0,1,2.7,155.54c6.2-36,23.15-69.43,49-96.73a186.75,186.75,0,0,1,63.73-44.08,189.58,189.58,0,0,1,206.92,40.4,49.78,49.78,0,0,0,57.93,10A138.28,138.28,0,0,1,441.12,51a137.72,137.72,0,1,1-60.8,261.25,50.39,50.39,0,0,0-22.14-5.17,49.31,49.31,0,0,0-35.26,14.67L321.64,323a187.92,187.92,0,0,1-122.76,54.06Z"/><path class="g" d="M71.85,304.28A164.79,164.79,0,0,1,41.73,115.14L53.3,121A151.27,151.27,0,0,0,81,295.11Zm-24.17-200c2.31-3.86,4.81-7.67,7.45-11.35l10.49,7.62c-2.4,3.35-4.67,6.81-6.77,10.32Zm15-21.14c2.88-3.44,6-6.81,9.13-10L81,82.27c-2.9,2.94-5.69,6-8.31,9.13Z"/><path class="g" d="M441.4,302a114.16,114.16,0,0,1-34.7-5.42l4-12.32A101.24,101.24,0,0,0,441.37,289a99.42,99.42,0,0,0,70-28.7l9.17,9.17A112.25,112.25,0,0,1,441.41,302Zm-46.46-9.89a112.5,112.5,0,0,1-12.31-6.43l6.8-11a100.45,100.45,0,0,0,10.69,5.58Zm-22.7-13.52a114.06,114.06,0,0,1-10.45-9.1l9.17-9.17a99.77,99.77,0,0,0,9.09,7.91Z"/><path class="g" d="M202.51,246.63a23,23,0,0,1,0-46v13a10.05,10.05,0,0,0,0,20Z"/><path class="g" d="M111.37,108.27a111,111,0,0,1,77-31.1h.48a113,113,0,0,1,31.23,4.37L216.41,94a100.19,100.19,0,0,0-27.54-3.83h-.43a98,98,0,0,0-68,27.39ZM256.65,117a97.49,97.49,0,0,0-9.23-7.72L255,98.71a110.94,110.94,0,0,1,10.65,8.91ZM237.91,103a100.06,100.06,0,0,0-10.8-5.31l4.88-12a114.31,114.31,0,0,1,12.47,6.13Z"/><path class="g" d="M441.17,249A62.11,62.11,0,0,1,427,247.38l3.18-12.58A48.7,48.7,0,0,0,441.12,236h.19l.31,13ZM452,234.81a46.78,46.78,0,0,0,20.46-10.37l8.76,9.56a59.83,59.83,0,0,1-26.59,13.52ZM414.62,243a58.89,58.89,0,0,1-12.41-8l8.54-9.76a46,46,0,0,0,9.3,6Z"/></svg>